@startuml
skinparam classAttributeIconSize 0
hide methods
left to right direction

class Platform{
}
class Freelancer {
  -String freeID
  -String name
  -String levelExp
  -String email
  -String nif
  -String iban
  -String country
}

class Organization {
  -String name
  -String email
  -String nif
}

class Collaborator{
  -String nameC
  -String emailC
  -String role
}

class Task {
  -String idTask
  -String description
  -int timeTask
  -double costHour
  -String taskCategory
  -boolean isPayed
  -boolean isFinished
}

class Manager {
  -String nameM
  -String emailM
  -String role
}

class User {
}

class TransactionExecution { 
  -Date endDate
  -double delay
  -String descriptionOfQuality
  -int transID
}

class Address{
  -String street
  -String doorNumber
  -String locality
}

class Administrator {
}

class Payment{
  -double valueE
  -double valueC
}

class DefinePayment{
  -Time timeToPay
  -Date dateToPay
  -int nrDays
  }

class ImportFile {
}



class Writer{
  }

Freelancer "1" -- "1..*" Payment: receives >
Freelancer "1" -- "1" Address: has >
Freelancer "1" -- "1" Writer: receives email from >

Task "1..*" -- "1" Freelancer: made by >


Platform "1" -- "1" Administrator: has >
Platform "1" -- "1..*" Organization: has registered >
Platform "1" -- "1..*" Freelancer: has >
Platform "1" -- "1" Freelancer: sends email to >
Platform "1" -- "1" Collaborator: sends email to >
Platform "1" -- "1" Manager: sends email to >
Platform "1" -- "1" Writer : sends emails from >
Platform "1" -- "1..*" DefinePayment : makes
Platform "1" -- "1" ImportFile: has > 

Organization "1" -- "1" Address: has >
Organization "1" -- "1" Manager: has >
Organization "1" -- "1" Collaborator: has >
Organization "1" -- "1..*" Task: has >
Organization "1" -- "1..*" DefinePayment: executes >
Organization "1" -- "1" TransactionExecution: has >


Manager "1" -- "1" User: acts as >
Manager "1" -- "1" Writer: receives email from >
Manager "1" -- "1" DefinePayment: defines 

Administrator "1" -- "1" Organization: registers >
Administrator "1" -- "1" User: acts as >
Administrator "1" -- "1" Collaborator: registers >
Administrator "1" -- "1" Manager: registers >
Administrator "1" -- "1" Writer: receives email from >





TransactionExecution "1" -- "1" Task : has >
TransactionExecution "1" -- "1" Freelancer: related to the work of >
TransactionExecution "1" -- "1" Payment : originates >

DefinePayment "1" -- "1..*" Payment: has >

ImportFile "1" -- "1" Collaborator: used by




Collaborator "1" -- "1" Freelancer: creates >
Collaborator "1" -- "1..*" Task: creates >
Collaborator "1" -- "1..*" TransactionExecution: creates >
Collaborator "1" -- "1" User: acts as >
Collaborator "1" -- "1" Writer: receives email from >









@enduml
